<svg width="33" height="26" viewBox="0 0 33 26" fill="none" xmlns="http://www.w3.org/2000/svg">
<path d="M30.3154 7.36456L28.3167 10.3708C29.2806 12.2933 29.7525 14.4249 29.6901 16.5746C29.6277 18.7243 29.0329 20.825 27.9592 22.6883H5.43666C4.04106 20.2672 3.46277 17.4609 3.78751 14.6853C4.11226 11.9097 5.32277 9.31265 7.23956 7.27913C9.15636 5.2456 11.6774 3.88388 14.429 3.39581C17.1806 2.90775 20.0162 3.31934 22.5154 4.56956L25.5217 2.57081C22.4609 0.608159 18.8304 -0.27131 15.2109 0.0730789C11.5913 0.417467 8.19176 1.96581 5.55609 4.47045C2.92042 6.97509 1.20087 10.2913 0.672515 13.8886C0.144156 17.486 0.837506 21.1566 2.64166 24.3133C2.92524 24.8045 3.33243 25.2129 3.82276 25.498C4.31309 25.7831 4.86949 25.9349 5.43666 25.9383H27.9429C28.5156 25.9406 29.0787 25.7915 29.5752 25.5061C30.0718 25.2208 30.4841 24.8093 30.7704 24.3133C32.2676 21.7197 33.019 18.7627 32.9416 15.769C32.8642 12.7752 31.961 9.86108 30.3317 7.34831L30.3154 7.36456ZM14.4067 18.4796C14.7085 18.7817 15.0669 19.0214 15.4615 19.185C15.856 19.3486 16.2789 19.4327 16.706 19.4327C17.1331 19.4327 17.556 19.3486 17.9506 19.185C18.3451 19.0214 18.7036 18.7817 19.0054 18.4796L28.2029 4.68331L14.4067 13.8808C14.1045 14.1826 13.8648 14.5411 13.7012 14.9356C13.5377 15.3302 13.4535 15.7531 13.4535 16.1802C13.4535 16.6073 13.5377 17.0302 13.7012 17.4247C13.8648 17.8193 14.1045 18.1777 14.4067 18.4796Z" fill="#D0A144"/>
</svg>
