<svg width="31" height="30" viewBox="0 0 31 30" fill="none" xmlns="http://www.w3.org/2000/svg">
<path fill-rule="evenodd" clip-rule="evenodd" d="M17.7367 7.77151C17.2729 8.09308 16.7497 8.31905 16.1976 8.43623C15.6456 8.55342 15.0757 8.55949 14.5212 8.45407C13.9668 8.34865 13.4389 8.13385 12.9684 7.82223C12.4979 7.5106 12.0941 7.10838 11.7807 6.63904C11.4673 6.1697 11.2505 5.64263 11.143 5.08861C11.0354 4.53458 11.0393 3.96468 11.1544 3.41218C11.2695 2.85967 11.4935 2.33562 11.8133 1.8706C12.1331 1.40559 12.5423 1.00893 13.017 0.703761C13.9544 0.0846608 15.0986 -0.138187 16.1998 0.0839308C17.3009 0.306048 18.2693 0.955065 18.8933 1.88911C19.5173 2.82315 19.7462 3.96625 19.5298 5.06853C19.3135 6.17081 18.6696 7.14262 17.7388 7.77151H17.7367ZM16.5573 2.47176C16.3259 2.30528 16.0633 2.18706 15.7853 2.12415C15.5072 2.06124 15.2193 2.05493 14.9388 2.10558C14.6583 2.15622 14.3908 2.26281 14.1523 2.41897C13.9138 2.57514 13.7091 2.7777 13.5505 3.0146C13.3919 3.25149 13.2826 3.51788 13.2291 3.79789C13.1756 4.07791 13.179 4.36583 13.239 4.64451C13.2991 4.92319 13.4146 5.18694 13.5788 5.42004C13.7429 5.65315 13.9522 5.85086 14.1943 6.00139C14.662 6.28552 15.2214 6.37824 15.7558 6.26023C16.2902 6.14222 16.7585 5.82258 17.063 5.36789C17.3676 4.9132 17.485 4.35852 17.3908 3.81941C17.2966 3.2803 16.998 2.79833 16.5573 2.47389V2.47176ZM22.1036 2.53551C22.7164 2.12326 23.4539 1.93762 24.1889 2.01054C24.9239 2.08346 25.6105 2.41038 26.1304 2.93501C26.5009 3.30848 26.7741 3.76715 26.926 4.27079C27.078 4.77443 27.104 5.30766 27.0018 5.82371C26.8997 6.33975 26.6724 6.82284 26.3401 7.23061C26.0077 7.63838 25.5804 7.95837 25.0956 8.16251C24.5133 8.40598 23.8715 8.47011 23.2526 8.34669C22.6336 8.22328 22.0656 7.91794 21.6212 7.46976C21.2872 7.13405 21.0315 6.72865 20.8725 6.28259C20.7135 5.83653 20.655 5.36083 20.7013 4.88954C20.7476 4.41825 20.8975 3.96302 21.1403 3.55643C21.3831 3.14984 21.7127 2.80194 22.1057 2.53764L22.1036 2.53551ZM23.1236 5.95676C23.3231 6.15543 23.5933 6.2667 23.8749 6.2661C24.0143 6.2658 24.1523 6.23805 24.2809 6.18443C24.4096 6.13081 24.5265 6.05236 24.6249 5.95357C24.7232 5.85479 24.8012 5.73759 24.8543 5.60868C24.9073 5.47977 24.9345 5.34167 24.9342 5.20226C24.9339 5.06285 24.9062 4.92486 24.8525 4.79618C24.7989 4.66749 24.7205 4.55063 24.6217 4.45226C24.4238 4.25328 24.1564 4.13899 23.8758 4.13351C23.7357 4.13323 23.5968 4.16073 23.4674 4.21442C23.3379 4.26811 23.2204 4.34694 23.1216 4.44633C23.0228 4.54573 22.9447 4.66372 22.8918 4.7935C22.8388 4.92327 22.8122 5.06224 22.8133 5.20239C22.814 5.48539 22.9253 5.7569 23.1236 5.95889V5.95676ZM5.15455 24.3975H9.0008V26.5331H5.15455C4.48123 26.5271 3.8378 26.2542 3.3653 25.7745C2.89099 25.293 2.62533 24.6441 2.6258 23.9683V20.122C2.3397 20.1124 2.0585 20.045 1.79919 19.9237C1.53988 19.8025 1.30783 19.6299 1.11705 19.4165C0.914334 19.2112 0.755241 18.967 0.649338 18.6985C0.543434 18.4301 0.492909 18.1431 0.5008 17.8546V13.2179C0.507175 12.2149 0.90455 11.2565 1.6058 10.5446C2.30493 9.84126 3.25055 9.43964 4.2408 9.43326H8.1508C7.6234 10.0614 7.22612 10.788 6.98205 11.571H4.2408C3.80951 11.5834 3.39915 11.7597 3.0933 12.064C2.79287 12.3729 2.6251 12.787 2.6258 13.2179V17.9609H4.7508V23.9661C4.74587 24.024 4.75275 24.0823 4.77101 24.1375C4.78928 24.1926 4.81855 24.2435 4.85705 24.287C4.94247 24.353 5.04664 24.3902 5.15455 24.3933V24.3975ZM20.667 10.5468C20.3193 10.1957 19.9057 9.91675 19.4498 9.72602C18.994 9.53529 18.5049 9.43653 18.0108 9.43539H12.7408C11.7502 9.44331 10.8029 9.84284 10.1058 10.5468C9.40455 11.2586 9.00718 12.217 9.0008 13.22V19.9733C8.9978 20.5531 9.21853 21.1118 9.61705 21.533C9.80806 21.7462 10.0402 21.9185 10.2994 22.0397C10.5587 22.161 10.8398 22.2286 11.1258 22.2385V27.1749C11.1238 27.5118 11.1885 27.8458 11.3161 28.1576C11.4438 28.4695 11.6319 28.7529 11.8696 28.9918C12.2521 29.3488 12.7344 29.5804 13.2508 29.6548H17.5008C18.0985 29.5763 18.6461 29.2797 19.0384 28.8219C19.4306 28.3642 19.6398 27.7776 19.6258 27.1749V22.2364C19.9119 22.2268 20.1931 22.1594 20.4524 22.0381C20.7117 21.9169 20.9438 21.7443 21.1346 21.5309C21.3371 21.3259 21.4961 21.082 21.602 20.814C21.7079 20.5459 21.7585 20.2592 21.7508 19.9711V13.2179C21.7523 12.2195 21.3633 11.2601 20.667 10.5446V10.5468ZM19.6258 20.0774H17.5008V27.1749C17.4987 27.2869 17.453 27.3937 17.3733 27.4724C17.337 27.5153 17.2913 27.5492 17.2396 27.5713C17.188 27.5935 17.1319 27.6032 17.0758 27.5999H13.6546C13.5435 27.5947 13.4384 27.5483 13.3598 27.4697C13.2812 27.3911 13.2347 27.2859 13.2296 27.1749V20.0774H11.1258V13.2179C11.1258 12.7865 11.2937 12.3721 11.5933 12.064C11.8992 11.7597 12.3095 11.5834 12.7408 11.571H18.0108C18.3327 11.5767 18.646 11.6762 18.9121 11.8574C19.1782 12.0386 19.3857 12.2936 19.5089 12.591C19.5898 12.7899 19.6296 13.0032 19.6258 13.2179V20.0774ZM25.5971 26.531H21.7508V24.3954H25.5758C25.6837 24.3924 25.7879 24.3552 25.8733 24.2891C25.9161 24.2473 25.9496 24.1969 25.9715 24.1413C25.9935 24.0856 26.0035 24.0259 26.0008 23.9661V17.9609H28.1258V13.2179C28.1265 12.787 27.9587 12.3729 27.6583 12.064C27.3524 11.7597 26.9421 11.5834 26.5108 11.571H23.7696C23.5256 10.788 23.1283 10.0613 22.6008 9.43326H26.5108C27.5012 9.44234 28.4481 9.84169 29.1458 10.5446C29.847 11.2565 30.2444 12.2149 30.2508 13.2179V17.8546C30.2508 18.4348 30.0319 18.9915 29.6367 19.4123C29.2414 19.8351 28.7017 20.088 28.1258 20.1199V23.9661C28.1258 24.644 27.8602 25.2921 27.3863 25.7724C26.9138 26.2521 26.2704 26.5249 25.5971 26.531ZM6.8758 1.99576C6.24346 1.99503 5.62531 2.18314 5.10057 2.536C4.57583 2.88885 4.16842 3.39037 3.93055 3.97626C3.69049 4.56195 3.62817 5.20536 3.75136 5.82623C3.87456 6.4471 4.17781 7.01797 4.6233 7.46764C5.06863 7.91678 5.63774 8.22298 6.25793 8.34712C6.87812 8.47126 7.52124 8.4077 8.10514 8.16456C8.68903 7.92142 9.18719 7.50975 9.53598 6.98212C9.88478 6.45449 10.0684 5.83486 10.0633 5.20239C10.0633 4.35239 9.72755 3.53639 9.1283 2.93501C8.83323 2.63779 8.48233 2.40181 8.09577 2.24063C7.70921 2.07944 7.29462 1.99622 6.8758 1.99576ZM6.8758 6.27126C6.73565 6.27155 6.59684 6.24405 6.46739 6.19035C6.33793 6.13666 6.22041 6.05784 6.1216 5.95844C6.0228 5.85905 5.94468 5.74105 5.89176 5.61128C5.83885 5.48151 5.81218 5.34253 5.8133 5.20239C5.81385 4.92017 5.92577 4.64959 6.12473 4.44944C6.32368 4.24928 6.5936 4.13575 6.8758 4.13351C7.15714 4.13847 7.42548 4.25287 7.62386 4.45244C7.82223 4.652 7.93503 4.92102 7.9383 5.20239C7.93775 5.4846 7.82583 5.75519 7.62688 5.95534C7.42792 6.15549 7.158 6.26902 6.8758 6.27126Z" fill="#D0A144"/>
</svg>
